<svg width="20" height="20" viewBox="0 0 20 20" fill="none" xmlns="http://www.w3.org/2000/svg">
<circle cx="10" cy="10" r="10" fill="white"/>
<path d="M7.65988 8.3916C7.9397 8.50842 8.04026 8.78116 7.9026 9.02379L7.88323 9.05733C7.74194 9.29786 7.45546 9.34714 7.21439 9.16323C6.97331 8.97931 6.21052 8.27052 5.77411 7.97383C5.27662 7.63561 4.0872 6.97863 3.86651 6.91721C3.71692 6.87557 3.672 7.02856 3.36044 7.11708C3.15829 7.17452 2.88099 7.15339 2.57374 6.976C2.2665 6.79861 1.43966 6.00811 1.67827 5.51963L1.73638 5.41899C2.04011 4.9681 3.13813 5.28891 3.44537 5.4663C3.75261 5.64369 3.90956 5.87328 3.9609 6.07706C4.04002 6.39113 3.92998 6.50653 4.04084 6.61527C4.20438 6.77568 5.36805 7.47726 5.9097 7.73899C6.38485 7.96858 7.38007 8.27478 7.65988 8.3916Z" fill="#D9D9D9" stroke="#3F4444" stroke-width="0.2"/>
<path d="M9.56899 13.2406C9.53025 12.9398 9.71617 12.7164 9.99511 12.7143H10.0339C10.3128 12.7164 10.4987 12.9398 10.46 13.2406C10.4212 13.5413 10.1888 14.5563 10.1501 15.0826C10.1059 15.6825 10.1317 17.0411 10.1888 17.2629C10.2275 17.4133 10.3825 17.3757 10.6149 17.6013C10.7658 17.7476 10.8861 17.9983 10.8861 18.3531C10.8861 18.7079 10.6149 19.8192 10.0726 19.8568H9.95637C9.41403 19.8192 9.14286 18.7079 9.14286 18.3531C9.14286 17.9983 9.26321 17.7476 9.41403 17.6013C9.64646 17.3757 9.80142 17.4133 9.84016 17.2629C9.89731 17.0411 9.92306 15.6825 9.8789 15.0826C9.84016 14.5563 9.60772 13.5413 9.56899 13.2406Z" fill="#D9D9D9" stroke="#3F4444" stroke-width="0.2"/>
<path d="M12.957 8.99528C12.7159 9.1792 12.4295 9.12992 12.2882 8.88939L12.2688 8.85584C12.1311 8.61322 12.2317 8.34048 12.5115 8.22366C12.7913 8.10684 13.7866 7.80064 14.2617 7.57104C14.8033 7.30932 15.967 6.60774 16.1306 6.44732C16.2414 6.33859 16.1314 6.22319 16.2105 5.90912C16.2618 5.70533 16.4188 5.47575 16.726 5.29836C17.0333 5.12097 18.1313 4.80015 18.435 5.25104L18.4931 5.35169C18.7317 5.84017 17.9049 6.63067 17.5977 6.80806C17.2904 6.98545 17.0131 7.00657 16.811 6.94914C16.4994 6.86062 16.4545 6.70763 16.3049 6.74926C16.0842 6.81069 14.8948 7.46767 14.3973 7.80589C13.9609 8.10258 13.1981 8.81137 12.957 8.99528Z" fill="#D9D9D9" stroke="#3F4444" stroke-width="0.2"/>
<path d="M10.431 7.33085C10.4697 7.63159 10.2838 7.85504 10.0049 7.85714H9.96613C9.68718 7.85504 9.50126 7.63159 9.54 7.33085C9.57874 7.03011 9.81117 6.01513 9.84991 5.48884C9.89407 4.88889 9.86833 3.53033 9.81117 3.30849C9.77244 3.15813 9.61748 3.19572 9.38505 2.97016C9.23423 2.82381 9.11387 2.5731 9.11387 2.21832C9.11387 1.86355 9.02662 0.75223 9.56897 0.714638V2.21832L9.8014 2.21832L9.87888 0.714638H10.0726L10.1598 2.21832L10.3825 2.21832V0.714638C10.9248 0.75223 10.8571 1.86355 10.8571 2.21832C10.8571 2.5731 10.7368 2.82381 10.586 2.97016C10.3535 3.19572 10.1986 3.15813 10.1598 3.30849C10.1027 3.53033 10.0769 4.88889 10.1211 5.48884C10.1598 6.01513 10.3923 7.03011 10.431 7.33085Z" fill="#D9D9D9" stroke="#3F4444" stroke-width="0.2"/>
<path d="M12.3831 12.093C12.1033 11.9762 12.0028 11.7035 12.1404 11.4608L12.1598 11.4273C12.3011 11.1868 12.5875 11.1375 12.8286 11.3214C13.0697 11.5053 13.8325 12.2141 14.2689 12.5108C14.7664 12.849 15.9558 13.506 16.1765 13.5674C16.3261 13.609 16.371 13.456 16.6826 13.3675C16.8847 13.3101 17.162 13.3312 17.4693 13.5086C17.7765 13.686 18.7826 14.1661 18.5439 14.6546L17.2417 13.9027L17.1255 14.104L18.389 14.923L18.2921 15.0907L16.9463 14.4144L16.835 14.6073L18.1372 15.3591C17.8335 15.81 16.9049 15.1957 16.5976 15.0183C16.2904 14.8409 16.1334 14.6113 16.0821 14.4075C16.003 14.0935 16.113 13.9781 16.0022 13.8693C15.8386 13.7089 14.675 13.0074 14.1333 12.7456C13.6582 12.516 12.6629 12.2098 12.3831 12.093Z" fill="#D9D9D9" stroke="#3F4444" stroke-width="0.2"/>
<path d="M7.22888 11.3465C7.46996 11.1626 7.75643 11.2118 7.89772 11.4524L7.91709 11.4859C8.05475 11.7285 7.95419 12.0013 7.67438 12.1181C7.39456 12.2349 6.39934 12.5411 5.92419 12.7707C5.38254 13.0324 4.21887 13.734 4.05533 13.8944C3.94447 14.0032 4.05451 14.1186 3.97539 14.4326C3.92405 14.6364 3.7671 14.866 3.45986 15.0434C3.15262 15.2208 2.23381 15.852 1.93009 15.4011L3.23231 14.6493L3.1161 14.448L1.77513 15.1327L1.67828 14.965L2.93689 14.1376L2.82555 13.9448L1.52333 14.6966C1.28471 14.2081 2.28099 13.7111 2.58824 13.5337C2.89548 13.3563 3.17278 13.3352 3.37494 13.3926C3.68649 13.4811 3.73141 13.6341 3.881 13.5925C4.10169 13.5311 5.29112 12.8741 5.7886 12.5359C6.22501 12.2392 6.9878 11.5304 7.22888 11.3465Z" fill="#D9D9D9" stroke="#3F4444" stroke-width="0.2"/>
<circle cx="9.99999" cy="10" r="5.61429" fill="#FBD373" stroke="#3F4444" stroke-width="0.2"/>
<path d="M10.0714 4.42857C10.0714 4.42857 10.6428 4.92686 10.6428 6.28572C10.6428 7.35715 10.0714 7.85715 10.0714 7.85715M7.26755 5.14159C7.26755 5.14159 8.01157 5.2874 8.69099 6.46421C9.22671 7.39209 8.98184 8.11082 8.98184 8.11082M5.19585 7.161C5.19585 7.161 5.91309 6.91527 7.0899 7.5947C8.01778 8.13042 8.16508 8.87529 8.16508 8.87529M4.41141 9.94572C4.41141 9.94572 4.90969 9.37429 6.26855 9.37429C7.33998 9.37429 7.83998 9.94572 7.83998 9.94572M5.12442 12.7496C5.12442 12.7496 5.27023 12.0056 6.44704 11.3261C7.37492 10.7904 8.09365 11.0353 8.09365 11.0353M7.14383 14.8213C7.14383 14.8213 6.89811 14.104 7.57753 12.9272C8.11325 11.9993 8.85812 11.852 8.85812 11.852M9.92855 15.6057C9.92855 15.6057 9.35712 15.1074 9.35712 13.7486C9.35712 12.6771 9.92855 12.1771 9.92855 12.1771M12.7324 14.8927C12.7324 14.8927 11.9884 14.7469 11.309 13.5701C10.7732 12.6422 11.0181 11.9235 11.0181 11.9235M14.8041 12.8733C14.8041 12.8733 14.0869 13.119 12.9101 12.4396C11.9822 11.9039 11.8349 11.159 11.8349 11.159M15.5886 10.0886C15.5886 10.0886 15.0903 10.66 13.7314 10.66C12.66 10.66 12.16 10.0886 12.16 10.0886M14.8755 7.28472C14.8755 7.28472 14.7297 8.02873 13.5529 8.70816C12.625 9.24388 11.9063 8.999 11.9063 8.999M12.8561 5.21302C12.8561 5.21302 13.1019 5.93026 12.4224 7.10706C11.8867 8.03495 11.1418 8.18225 11.1418 8.18225" stroke="#3F4444" stroke-width="0.2"/>
<circle cx="10" cy="10" r="2.28571" fill="#FAA31C"/>
<path d="M10.6138 8.68572C10.6346 8.68572 10.6541 8.68015 10.6709 8.67043C10.6877 8.68015 10.7072 8.68572 10.728 8.68572C10.728 8.74884 10.7792 8.8 10.8423 8.8C10.8631 8.8 10.8827 8.79444 10.8995 8.78471C10.9163 8.79444 10.9358 8.8 10.9566 8.8C10.9566 8.86312 11.0078 8.91429 11.0709 8.91429C11.134 8.91429 11.1852 8.86312 11.1852 8.8C11.1852 8.73689 11.134 8.68572 11.0709 8.68572C11.0709 8.6226 11.0197 8.57143 10.9566 8.57143C10.9358 8.57143 10.9163 8.577 10.8995 8.58672C10.8827 8.577 10.8631 8.57143 10.8423 8.57143C10.8423 8.50831 10.7912 8.45715 10.728 8.45715C10.7072 8.45715 10.6877 8.46271 10.6709 8.47244C10.6541 8.46271 10.6346 8.45715 10.6138 8.45715C10.5929 8.45715 10.5734 8.46272 10.5566 8.47245C10.548 8.46749 10.5388 8.46365 10.5291 8.46106C10.5129 8.4567 10.4959 8.45597 10.4794 8.45893C10.4628 8.46189 10.4471 8.46846 10.4334 8.47817C10.4197 8.48788 10.4083 8.50051 10.4 8.51513L10.4995 8.57143C10.4995 8.63455 10.5506 8.68572 10.6138 8.68572Z" fill="white"/>
<path d="M9.92804 9.14286C9.94886 9.14286 9.96837 9.13729 9.98518 9.12757C10.002 9.13729 10.0215 9.14286 10.0423 9.14286C10.0423 9.20598 10.0935 9.25714 10.1566 9.25714C10.1774 9.25714 10.1969 9.25158 10.2138 9.24185C10.2306 9.25158 10.2501 9.25714 10.2709 9.25714C10.2709 9.32026 10.3221 9.37143 10.3852 9.37143C10.4483 9.37143 10.4995 9.32026 10.4995 9.25714C10.4995 9.19403 10.4483 9.14286 10.3852 9.14286C10.3852 9.07974 10.334 9.02857 10.2709 9.02857C10.2501 9.02857 10.2306 9.03414 10.2138 9.04386C10.1969 9.03414 10.1774 9.02857 10.1566 9.02857C10.1566 8.96545 10.1054 8.91429 10.0423 8.91429C10.0215 8.91429 10.002 8.91985 9.98518 8.92958C9.96837 8.91985 9.94886 8.91429 9.92804 8.91429C9.90722 8.91429 9.88769 8.91986 9.87088 8.92959C9.86229 8.92463 9.85306 8.92079 9.84342 8.9182C9.82719 8.91384 9.81019 8.91311 9.79365 8.91607C9.7771 8.91903 9.76141 8.9256 9.7477 8.93531C9.73398 8.94503 9.72258 8.95765 9.7143 8.97227L9.81375 9.02857C9.81376 9.09169 9.86492 9.14286 9.92804 9.14286Z" fill="white"/>
<path d="M10.8455 9.22358C10.866 9.22749 10.8862 9.22568 10.9045 9.21929C10.9192 9.23199 10.9373 9.24112 10.9578 9.24503C10.9459 9.30703 10.9866 9.36689 11.0486 9.37873C11.069 9.38264 11.0892 9.38084 11.1076 9.37444C11.1222 9.38715 11.1404 9.39628 11.1608 9.40018C11.149 9.46218 11.1896 9.52204 11.2516 9.53389C11.3136 9.54574 11.3735 9.50508 11.3853 9.44308C11.3972 9.38109 11.3565 9.32123 11.2945 9.30938C11.3064 9.24738 11.2657 9.18752 11.2037 9.17567C11.1833 9.17177 11.1631 9.17357 11.1447 9.17997C11.13 9.16726 11.1119 9.15813 11.0915 9.15422C11.1033 9.09223 11.0627 9.03237 11.0007 9.02052C10.9802 9.01661 10.96 9.01842 10.9417 9.02481C10.927 9.01211 10.9089 9.00298 10.8884 8.99907C10.868 8.99516 10.8477 8.99697 10.8294 9.00337C10.8219 8.99689 10.8135 8.99139 10.8046 8.98703C10.7894 8.9797 10.7729 8.9758 10.7561 8.9756C10.7393 8.97539 10.7226 8.9789 10.7073 8.98587C10.692 8.99284 10.6785 9.00309 10.6676 9.01591L10.7547 9.08987C10.7429 9.15187 10.7835 9.21173 10.8455 9.22358Z" fill="white"/>
<path d="M11.7093 9.87083C11.7153 9.89076 11.7263 9.90782 11.7405 9.92109C11.7361 9.94 11.7364 9.96029 11.7424 9.98021C11.682 9.99851 11.6479 10.0623 11.6662 10.1227C11.6722 10.1426 11.6832 10.1597 11.6974 10.173C11.693 10.1919 11.6933 10.2122 11.6993 10.2321C11.6389 10.2504 11.6048 10.3142 11.6231 10.3746C11.6414 10.435 11.7052 10.4692 11.7656 10.4509C11.826 10.4326 11.8602 10.3687 11.8419 10.3083C11.9023 10.29 11.9364 10.2262 11.9181 10.1658C11.9121 10.1459 11.9011 10.1288 11.8869 10.1156C11.8913 10.0967 11.891 10.0764 11.885 10.0565C11.9454 10.0382 11.9795 9.97435 11.9612 9.91394C11.9552 9.89402 11.9442 9.87695 11.93 9.86369C11.9344 9.84478 11.9341 9.82449 11.9281 9.80456C11.922 9.78463 11.911 9.76756 11.8968 9.75429C11.8991 9.74463 11.9001 9.73469 11.8998 9.72471C11.8992 9.70791 11.895 9.69144 11.8874 9.67646C11.8798 9.66148 11.8689 9.64837 11.8557 9.63806C11.8424 9.62775 11.827 9.6205 11.8106 9.61681L11.7856 9.72832C11.7251 9.74662 11.691 9.81043 11.7093 9.87083Z" fill="white"/>
<path d="M9.64779 8.40165C9.66748 8.39489 9.68414 8.3833 9.69688 8.36864C9.71594 8.37239 9.7362 8.37132 9.75589 8.36456C9.77638 8.42426 9.84138 8.45605 9.90108 8.43557C9.92077 8.42882 9.93743 8.41722 9.95017 8.40256C9.96923 8.40631 9.98949 8.40524 10.0092 8.39848C10.0297 8.45818 10.0947 8.48998 10.1544 8.46949C10.2141 8.44901 10.2459 8.38401 10.2254 8.3243C10.2049 8.2646 10.1399 8.23281 10.0802 8.25329C10.0597 8.19359 9.99471 8.1618 9.935 8.18228C9.91531 8.18904 9.89866 8.20064 9.88592 8.21529C9.86686 8.21155 9.84659 8.21262 9.8269 8.21937C9.80642 8.15967 9.74142 8.12788 9.68172 8.14836C9.66203 8.15512 9.64537 8.16671 9.63263 8.18137C9.61357 8.17762 9.59331 8.17869 9.57362 8.18545C9.55392 8.19221 9.53726 8.20381 9.52451 8.21847C9.51477 8.21657 9.5048 8.21594 9.49484 8.21662C9.47808 8.21776 9.46177 8.22258 9.44707 8.23075C9.43238 8.23892 9.41968 8.25022 9.40986 8.26386C9.40004 8.2775 9.39334 8.29314 9.39026 8.30966L9.5026 8.33064C9.52309 8.39034 9.58809 8.42213 9.64779 8.40165Z" fill="white"/>
<path d="M9.21683 8.45715L9.62643 8.63148C9.62643 8.63148 9.74115 8.72126 9.71499 8.76456C9.59724 8.95943 9.17487 8.57986 9.17487 8.57986L9.21683 8.45715Z" fill="#25772E"/>
<path d="M11.0857 9.71429L11.3955 9.80968C11.3955 9.80968 11.53 9.90217 11.5036 9.94123C11.3851 10.117 10.6286 9.6 10.6286 9.6L11.0857 9.71429Z" fill="#25772E"/>
<path d="M10.0168 8.8L10.131 8.8733C10.131 8.8733 10.1541 8.93176 10.1351 8.97751C10.0495 9.18338 9.97487 8.92272 9.97487 8.92272L10.0168 8.8Z" fill="#25772E"/>
<path d="M10.4789 8.56683C10.5901 8.58887 10.7252 8.57697 10.7412 8.69113C10.75 8.75417 10.7184 8.88637 10.6882 8.84605C10.6184 8.75297 10.2045 8.57682 10.2045 8.57682C10.2045 8.57682 10.3739 8.54603 10.4789 8.56683Z" fill="#25772E"/>
<path d="M10.7785 9.15838C10.8596 9.1796 10.9542 9.18824 10.9773 9.2405C10.9901 9.26935 10.9813 9.32471 10.9557 9.30372C10.8966 9.25527 10.5849 9.13455 10.5849 9.13455C10.5849 9.13455 10.7019 9.13835 10.7785 9.15838Z" fill="#25772E"/>
<path d="M11.4397 9.26398C11.7606 9.42702 12.0417 9.46985 12.0417 9.46985C12.0417 9.46985 12.0416 9.50723 12.0232 9.52399C11.9404 9.59943 11.4212 9.31812 11.4212 9.31812C11.4212 9.31812 11.1187 9.10094 11.4397 9.26398Z" fill="#25772E"/>
<path d="M9.35787 9.17886C9.49475 9.27896 9.63133 9.27237 9.63133 9.27237C9.63133 9.27237 9.62503 9.30764 9.61282 9.32651C9.55789 9.41147 9.33936 9.233 9.33936 9.233C9.33936 9.233 9.221 9.07877 9.35787 9.17886Z" fill="#25772E"/>
<path fill-rule="evenodd" clip-rule="evenodd" d="M8.59313 9.76683C8.6162 9.7714 8.6403 9.77451 8.66416 9.77759C8.75528 9.78936 8.84277 9.80066 8.85544 9.89114C8.86427 9.95417 8.8327 10.0864 8.80247 10.046C8.73269 9.95297 8.31875 9.77682 8.31875 9.77682C8.31875 9.77682 8.4882 9.74603 8.59313 9.76683ZM7.78471 10.1372C7.7665 10.207 7.75182 10.2774 7.74066 10.3483C7.9084 11.4454 8.85607 12.2857 10 12.2857C10.8787 12.2857 11.6416 11.7899 12.0242 11.0627C12.0461 10.9386 12.0571 10.8125 12.0571 10.6857C12.0571 10.6857 11.397 10.8527 10.7128 10.9137L10.8062 10.9425C10.8062 10.9425 10.9407 11.0349 10.9143 11.074C10.8547 11.1624 10.6335 11.0755 10.4284 10.9672C10.4244 10.9829 10.4183 10.9975 10.4102 11.0105C10.3988 11.0289 10.3838 11.0436 10.3663 11.0534C10.3488 11.0633 10.3292 11.0682 10.3089 11.0676C10.2886 11.0671 10.2682 11.0611 10.249 11.0503C10.2393 11.0448 10.2301 11.0382 10.2215 11.0306C10.2063 11.0631 10.1807 11.0878 10.1475 11.0979C10.1031 11.1114 10.0556 11.0956 10.0194 11.0606C10.0045 11.0953 9.97807 11.1219 9.94331 11.1324C9.87168 11.1542 9.7917 11.0998 9.76467 11.0108C9.76299 11.0053 9.76155 10.9998 9.76036 10.9943C9.75125 11.0005 9.74124 11.0053 9.73041 11.0086C9.68605 11.0221 9.63848 11.0063 9.60227 10.9713C9.58739 11.006 9.56098 11.0325 9.52622 11.0431C9.45459 11.0649 9.37461 11.0105 9.34758 10.9215C9.3459 10.916 9.34446 10.9105 9.34327 10.905C9.33416 10.9111 9.32414 10.916 9.31331 10.9193C9.24168 10.941 9.1617 10.8866 9.13467 10.7977C9.12681 10.7719 9.12429 10.746 9.12642 10.7217C9.05508 10.6972 8.984 10.6714 8.9139 10.6449C8.84918 10.6706 8.77053 10.6857 8.68572 10.6857C8.4648 10.6857 8.28572 10.5834 8.28572 10.4571C8.28572 10.4336 8.29196 10.4109 8.30354 10.3895C7.99612 10.2495 7.78471 10.1372 7.78471 10.1372ZM9.41501 11.5217C9.55189 11.6218 9.68846 11.6152 9.68846 11.6152C9.68846 11.6152 9.68216 11.6505 9.66995 11.6694C9.61502 11.7543 9.39649 11.5759 9.39649 11.5759C9.39649 11.5759 9.27813 11.4216 9.41501 11.5217ZM9.73096 10.4162L9.61682 10.3429L9.57486 10.4656C9.57486 10.4656 9.64953 10.7262 9.73509 10.5204C9.75411 10.4746 9.73096 10.4162 9.73096 10.4162ZM10.8813 10.7188C10.9146 10.7045 10.9484 10.69 10.9819 10.6777C11.1342 10.6221 11.3314 10.4661 11.3314 10.4661C11.3314 10.4661 10.659 10.5893 10.4976 10.5451C10.4277 10.526 10.4869 10.6847 10.5462 10.7428C10.6313 10.8263 10.7537 10.7736 10.8813 10.7188Z" fill="#B76320"/>
<circle cx="10" cy="10" r="2.03571" stroke="#723D16" stroke-width="0.5" stroke-linecap="round" stroke-linejoin="round" stroke-dasharray="0.5 0.5"/>
<circle cx="10" cy="10" r="2.53571" stroke="#723D16" stroke-width="0.5" stroke-linecap="round" stroke-linejoin="round" stroke-dasharray="0.5 1"/>
</svg>
